[IMG]http://www.shotpix.com/images/78021898412693064978.jpg[/IMG]

General
Complete name                            : Rihanna ft. Calvin Harris - We Found Love [Music Video] 720p [Sbyky].mp4
Format                                   : MPEG-4
Format profile                           : Base Media / Version 2
Codec ID                                 : mp42
File size                                : 60.9 MiB
Duration                                 : 4mn 35s
Overall bit rate mode                    : Variable
Overall bit rate                         : 1 856 Kbps
Encoded date                             : UTC 2011-10-19 00:41:05
Tagged date                              : UTC 2011-10-19 00:41:05
gsst                                     : 0
gstd                                     : 275400
gssd                                     : BB6B02904HH1344607874895734

Video
ID                                       : 1
Format                                   : AVC
Format/Info                              : Advanced Video Codec
Format profile                           : High@L3.1
Format settings, CABAC                   : Yes
Format settings, ReFrames                : 1 frame
Codec ID                                 : avc1
Codec ID/Info                            : Advanced Video Coding
Duration                                 : 4mn 35s
Bit rate                                 : 1 699 Kbps
Maximum bit rate                         : 4 616 Kbps
Width                                    : 1 280 pixels
Height                                   : 720 pixels
Display aspect ratio                     : 16:9
Frame rate mode                          : Constant
Frame rate                               : 25.000 fps
Color space                              : YUV
Chroma subsampling                       : 4:2:0
Bit depth                                : 8 bits
Scan type                                : Progressive
Bits/(Pixel*Frame)                       : 0.074
Stream size                              : 55.8 MiB (92%)
Tagged date                              : UTC 2011-10-19 00:41:06

Audio
ID                                       : 2
Format                                   : AAC
Format/Info                              : Advanced Audio Codec
Format profile                           : LC
Codec ID                                 : 40
Duration                                 : 4mn 35s
Bit rate mode                            : Variable
Bit rate                                 : 152 Kbps
Maximum bit rate                         : 209 Kbps
Channel(s)                               : 2 channels
Channel positions                        : Front: L R
Sampling rate                            : 44.1 KHz
Compression mode                         : Lossy
Stream size                              : 4.99 MiB (8%)
Title                                    : IsoMedia File Produced by Google, 5-11-2011
Encoded date                             : UTC 2011-10-19 00:41:05
Tagged date                              : UTC 2011-10-19 00:41:06

Shared By Sbyky
[IMG]http://www.shotpix.com/images/36391391396177178781.gif[/IMG]
[IMG]http://www.shotpix.com/images/54442018924177629170.gif[/IMG]